<svg width="54" height="378" viewBox="0 0 54 378" fill="none" xmlns="http://www.w3.org/2000/svg">
<path d="M-50.9305 355.032L-50.9305 377.565H50.9303V355.032H-50.9305Z" fill="#FF5252"/>
<path d="M-18.4806 292.503C-18.4806 306.023 -10.7683 313.001 -0.873215 317.072L-1.16425 317.654C-5.23868 316.781 -8.00348 316.345 -16.2979 316.345L-16.2979 338.007L50.9303 338.006V316.054H18.4803C5.67498 316.054 0.727455 310.385 0.727455 302.098C0.727455 294.975 5.38395 290.759 14.988 290.759H50.9303V268.952H8.87632C-9.31312 268.952 -18.4806 277.529 -18.4806 292.503Z" fill="#FF5252"/>
<path d="M-53.1133 220.506C-53.1133 241.004 -42.9272 253.216 -26.1929 253.216C-14.4062 253.216 -5.09317 247.11 2.61915 234.898L12.6597 219.197C17.1707 211.928 20.081 209.457 23.8644 209.457C28.9575 209.457 32.1588 214.109 32.1588 222.396C32.1588 231.409 28.8119 241.149 22.7003 250.454L42.9269 260.63C49.4751 249.436 53.113 236.497 53.113 223.268C53.113 199.717 42.3449 186.342 22.8458 186.342C10.3315 186.342 1.89157 191.866 -6.69384 205.386L-17.6075 222.396C-21.3909 228.502 -23.2826 230.101 -26.4839 230.101C-30.4129 230.101 -32.3046 227.048 -32.3046 220.36C-32.3046 213.237 -30.1218 206.259 -25.6109 198.263L-45.2554 188.377C-50.3485 198.554 -53.1133 209.748 -53.1133 220.506Z" fill="#FF5252"/>
<path d="M-18.4806 141.289C-18.4806 163.096 -4.22008 179.088 17.3162 179.088C38.8525 179.088 53.113 163.096 53.113 141.289C53.113 119.628 38.8525 103.636 17.3162 103.636C-4.22008 103.636 -18.4806 119.628 -18.4806 141.289ZM1.60054 141.289C1.60054 132.421 7.71219 125.589 17.3162 125.589C26.9202 125.589 33.0319 132.421 33.0319 141.289C33.0319 150.157 26.9202 156.99 17.3162 156.99C7.71219 156.99 1.60054 150.157 1.60054 141.289Z" fill="#FF5252"/>
<path d="M-52.3857 50.3451L-52.3857 54.8519C-52.3857 76.3678 -43.2182 87.8527 -21.5364 87.8527H-20.5178C-18.7716 87.8527 -17.171 87.7073 -15.5703 86.8351L-15.2793 87.1258C-16.2979 88.8704 -16.2979 90.9056 -16.2979 93.6678V99.7737H2.1826V93.6678C2.1826 90.3241 2.1826 88.725 1.16399 87.1258L1.45502 86.8351C3.20121 87.8527 5.52946 87.8527 9.7494 87.8527L50.9303 87.8527V65.9006H9.7494C5.52946 65.9006 3.20121 65.9006 1.45502 66.9183L1.16399 66.6275C2.1826 65.0283 2.1826 63.4292 2.1826 60.0855L2.18259 50.3451H-16.2979L-16.2979 60.0855C-16.2979 62.8477 -16.2979 64.8829 -15.2793 66.6275L-15.5703 66.9183C-17.171 66.046 -18.7716 65.9006 -20.5178 65.9006H-21.5364C-29.8308 65.9006 -32.4501 62.1208 -32.4501 52.0897V50.3451H-52.3857Z" fill="#FF5252"/>
<path d="M-52.2402 13.2294L-52.2402 15.4101L-38.8528 35.1815L-21.3909 35.1815C-19.4992 35.1815 -17.3165 35.1815 -15.5703 34.1639L-15.2793 34.4546C-16.2979 36.1992 -16.2979 38.2345 -16.2979 40.9966V47.1025H2.18259V40.9966C2.18259 37.6529 2.1826 36.0538 1.16399 34.4546L1.45502 34.1639C3.20121 35.1815 5.38394 35.1815 9.7494 35.1815L50.9303 35.1815V13.2294L9.7494 13.2294C5.38394 13.2294 3.20121 13.2294 1.45502 14.2471L1.16399 13.9563C2.18259 12.3571 2.1826 10.758 2.18259 7.41429V0L-16.2979 8.07045e-07V7.41429C-16.2979 10.1765 -16.2979 12.2118 -15.2793 13.9563L-15.5703 14.2471C-17.3165 13.2294 -19.3537 13.2294 -21.3909 13.2294L-52.2402 13.2294Z" fill="#FF5252"/>
</svg>
